<svg xmlns="http://www.w3.org/2000/svg" viewBox="0 0 1200 720" font-family="sans-serif">
  <rect x="0" y="0" width="1200" height="720" fill="#ffffff"/>
  <text x="600" y="26" text-anchor="middle" font-size="17" font-weight="bold" fill="#212121">リーンキャンバス — ai-reskilling / セグメント: FDEで手を動かすエンジニア （2026-07-24）</text>

  <!-- 課題 (Problem): 未検証 -->
  <g>
    <rect x="0" y="40" width="240" height="520" fill="#ffffff" stroke="#f9a825" stroke-width="1.5" stroke-dasharray="6 4"/>
    <rect x="0" y="40" width="240" height="26" fill="#f9a825"/>
    <text x="8" y="58" font-size="13" font-weight="bold" fill="#ffffff">課題 (Problem)</text>
    <text x="8" y="88" font-size="12" fill="#212121"><tspan fill="#ef6c00">? </tspan>AI出力を目利きできず</text>
    <text x="20" y="106" font-size="12" fill="#212121">丸呑み（検証せず承認）</text>
    <text x="8" y="136" font-size="10" fill="#9e9e9e">※叩き台#2・自分の言葉待ち</text>
    <text x="8" y="154" font-size="10" fill="#9e9e9e">cf. AIRE-H-002 / H-003</text>
  </g>

  <!-- ソリューション (Solution): 空白 -->
  <g>
    <rect x="240" y="40" width="240" height="260" fill="#ffffff" stroke="#bdbdbd" stroke-width="1.5" stroke-dasharray="4 4"/>
    <rect x="240" y="40" width="240" height="26" fill="#bdbdbd"/>
    <text x="248" y="58" font-size="13" font-weight="bold" fill="#ffffff">ソリューション (Solution)</text>
    <text x="248" y="88" font-size="12" fill="#9e9e9e">（未着手）</text>
  </g>

  <!-- 主要指標 (Key Metrics): 空白 -->
  <g>
    <rect x="240" y="300" width="240" height="260" fill="#ffffff" stroke="#bdbdbd" stroke-width="1.5" stroke-dasharray="4 4"/>
    <rect x="240" y="300" width="240" height="26" fill="#bdbdbd"/>
    <text x="248" y="318" font-size="13" font-weight="bold" fill="#ffffff">主要指標 (Key Metrics)</text>
    <text x="248" y="348" font-size="12" fill="#9e9e9e">（未着手）</text>
  </g>

  <!-- 独自の価値提案 (UVP): 空白 -->
  <g>
    <rect x="480" y="40" width="240" height="520" fill="#ffffff" stroke="#bdbdbd" stroke-width="1.5" stroke-dasharray="4 4"/>
    <rect x="480" y="40" width="240" height="26" fill="#bdbdbd"/>
    <text x="488" y="58" font-size="13" font-weight="bold" fill="#ffffff">独自の価値提案 (UVP)</text>
    <text x="488" y="88" font-size="12" fill="#9e9e9e">（未着手）</text>
  </g>

  <!-- 圧倒的優位性 (Unfair Advantage): 空白 -->
  <g>
    <rect x="720" y="40" width="240" height="260" fill="#ffffff" stroke="#bdbdbd" stroke-width="1.5" stroke-dasharray="4 4"/>
    <rect x="720" y="40" width="240" height="26" fill="#bdbdbd"/>
    <text x="728" y="58" font-size="12" font-weight="bold" fill="#ffffff">圧倒的優位性 (Unfair Adv.)</text>
    <text x="728" y="88" font-size="12" fill="#9e9e9e">（未着手）</text>
  </g>

  <!-- チャネル (Channels): 空白 -->
  <g>
    <rect x="720" y="300" width="240" height="260" fill="#ffffff" stroke="#bdbdbd" stroke-width="1.5" stroke-dasharray="4 4"/>
    <rect x="720" y="300" width="240" height="26" fill="#bdbdbd"/>
    <text x="728" y="318" font-size="13" font-weight="bold" fill="#ffffff">チャネル (Channels)</text>
    <text x="728" y="348" font-size="12" fill="#9e9e9e">（未着手）</text>
  </g>

  <!-- 顧客セグメント (Customer Segments): 未検証 -->
  <g>
    <rect x="960" y="40" width="240" height="520" fill="#ffffff" stroke="#f9a825" stroke-width="1.5" stroke-dasharray="6 4"/>
    <rect x="960" y="40" width="240" height="26" fill="#f9a825"/>
    <text x="968" y="58" font-size="13" font-weight="bold" fill="#ffffff">顧客セグメント (Customer)</text>
    <text x="968" y="88" font-size="12" fill="#212121"><tspan fill="#ef6c00">? </tspan>FDE部隊で手を動かす</text>
    <text x="980" y="106" font-size="12" fill="#212121">エンジニア</text>
    <text x="968" y="132" font-size="12" fill="#212121"><tspan fill="#ef6c00">? </tspan>専門外(仮説検証・PM)を</text>
    <text x="980" y="150" font-size="12" fill="#212121">AIに任せて開発</text>
    <text x="968" y="182" font-size="11" fill="#9e9e9e">[アーリーアダプター]</text>
    <text x="968" y="200" font-size="11" fill="#9e9e9e">先鋒は未特定（要深掘り）</text>
    <text x="968" y="226" font-size="10" fill="#9e9e9e">cf. AIRE-H-001</text>
    <text x="968" y="252" font-size="10" fill="#9e9e9e">※payer(FDE組成マネージャ)は</text>
    <text x="968" y="268" font-size="10" fill="#9e9e9e">別キャンバス</text>
  </g>

  <!-- コスト構造 (Cost Structure): 空白 -->
  <g>
    <rect x="0" y="560" width="600" height="160" fill="#ffffff" stroke="#bdbdbd" stroke-width="1.5" stroke-dasharray="4 4"/>
    <rect x="0" y="560" width="600" height="26" fill="#bdbdbd"/>
    <text x="8" y="578" font-size="13" font-weight="bold" fill="#ffffff">コスト構造 (Cost Structure)</text>
    <text x="8" y="608" font-size="12" fill="#9e9e9e">（未着手）</text>
  </g>

  <!-- 収益の流れ (Revenue Streams): 空白 -->
  <g>
    <rect x="600" y="560" width="600" height="160" fill="#ffffff" stroke="#bdbdbd" stroke-width="1.5" stroke-dasharray="4 4"/>
    <rect x="600" y="560" width="600" height="26" fill="#bdbdbd"/>
    <text x="608" y="578" font-size="13" font-weight="bold" fill="#ffffff">収益の流れ (Revenue Streams)</text>
    <text x="608" y="608" font-size="12" fill="#9e9e9e">（未着手）</text>
  </g>

  <!-- 凡例 -->
  <text x="1192" y="700" text-anchor="end" font-size="11" fill="#616161">凡例: ✓ 検証済み ／ ? 未検証 ／ 灰 未着手</text>
  <text x="1192" y="715" text-anchor="end" font-size="10" fill="#9e9e9e">9ブロック中 埋: 2（未検証） / 空白: 7 → 仮説キャンバス</text>
</svg>
